name rise45.9887peak57.8056fall74.9286.mot
datacolumns 19
datarows 33
range 1.25332900000000 1.30666300000000
endheader
time	ground_force1_vx	ground_force1_vy	ground_force1_vz	ground_force1_px	ground_force1_py	ground_force1_pz	ground_force2_vx	ground_force2_vy	ground_force2_vz	ground_force2_px	ground_force2_py	ground_force2_pz	ground_torque1_x	ground_torque1_y	ground_torque1_z	ground_torque2_x	ground_torque2_y	ground_torque2_z	
1.25332900000000	25.94266000000000	708.46366999999998	33.82135500000000	0.28533400000000	0.00000000000000	0.09959200000000	0.00000000000000	0.00000000000000	0.00000000000000	0.00000000000000	0.00000000000000	0.00000000000000	0.00000000000000	15.50209400000000	0.00000000000000	0.00000000000000	0.00000000000000	0.00000000000000	
1.25500100000000	25.61247500000000	709.34497699999997	33.81426300000000	0.28475200000000	0.00000000000000	0.09951100000000	0.00000000000000	0.00000000000000	0.00000000000000	0.00000000000000	0.00000000000000	0.00000000000000	0.00000000000000	15.55270700000000	0.00000000000000	0.00000000000000	0.00000000000000	0.00000000000000	
1.25666700000000	25.27586000000000	710.24470899999994	33.81215000000000	0.28418200000000	0.00000000000000	0.09943100000000	0.00000000000000	0.00000000000000	0.00000000000000	0.00000000000000	0.00000000000000	0.00000000000000	0.00000000000000	15.60762600000000	0.00000000000000	0.00000000000000	0.00000000000000	0.00000000000000	
1.25832700000000	24.93268800000000	711.16164200000003	33.81482100000000	0.28362400000000	0.00000000000000	0.09935100000000	0.00000000000000	0.00000000000000	0.00000000000000	0.00000000000000	0.00000000000000	0.00000000000000	0.00000000000000	15.66667000000000	0.00000000000000	0.00000000000000	0.00000000000000	0.00000000000000	
1.25999700000000	24.58284000000000	712.09462699999995	33.82209200000000	0.28307400000000	0.00000000000000	0.09927100000000	0.00000000000000	0.00000000000000	0.00000000000000	0.00000000000000	0.00000000000000	0.00000000000000	0.00000000000000	15.72966400000000	0.00000000000000	0.00000000000000	0.00000000000000	0.00000000000000	
1.26165900000000	24.22620700000000	713.04258800000002	33.83378300000000	0.28253000000000	0.00000000000000	0.09919300000000	0.00000000000000	0.00000000000000	0.00000000000000	0.00000000000000	0.00000000000000	0.00000000000000	0.00000000000000	15.79643700000000	0.00000000000000	0.00000000000000	0.00000000000000	0.00000000000000	
1.26332700000000	23.86269100000000	714.00452700000005	33.84972600000000	0.28199200000000	0.00000000000000	0.09911500000000	0.00000000000000	0.00000000000000	0.00000000000000	0.00000000000000	0.00000000000000	0.00000000000000	0.00000000000000	15.86682000000000	0.00000000000000	0.00000000000000	0.00000000000000	0.00000000000000	
1.26500000000000	23.49220100000000	714.97951699999999	33.86975800000000	0.28145600000000	0.00000000000000	0.09903700000000	0.00000000000000	0.00000000000000	0.00000000000000	0.00000000000000	0.00000000000000	0.00000000000000	0.00000000000000	15.94065200000000	0.00000000000000	0.00000000000000	0.00000000000000	0.00000000000000	
1.26666000000000	23.11466000000000	715.96670500000005	33.89372800000000	0.28092100000000	0.00000000000000	0.09896100000000	0.00000000000000	0.00000000000000	0.00000000000000	0.00000000000000	0.00000000000000	0.00000000000000	0.00000000000000	16.01777300000000	0.00000000000000	0.00000000000000	0.00000000000000	0.00000000000000	
1.26832700000000	22.72999900000000	716.96530600000006	33.92149400000000	0.28038500000000	0.00000000000000	0.09888600000000	0.00000000000000	0.00000000000000	0.00000000000000	0.00000000000000	0.00000000000000	0.00000000000000	0.00000000000000	16.09803000000000	0.00000000000000	0.00000000000000	0.00000000000000	0.00000000000000	
1.26999400000000	22.33816200000000	717.97460599999999	33.95292100000000	0.27984600000000	0.00000000000000	0.09881200000000	0.00000000000000	0.00000000000000	0.00000000000000	0.00000000000000	0.00000000000000	0.00000000000000	0.00000000000000	16.18127300000000	0.00000000000000	0.00000000000000	0.00000000000000	0.00000000000000	
1.27166400000000	21.93910200000000	718.99395900000002	33.98788600000000	0.27930200000000	0.00000000000000	0.09873900000000	0.00000000000000	0.00000000000000	0.00000000000000	0.00000000000000	0.00000000000000	0.00000000000000	0.00000000000000	16.26735900000000	0.00000000000000	0.00000000000000	0.00000000000000	0.00000000000000	
1.27333300000000	21.53278400000000	720.02278100000001	34.02627600000000	0.27875200000000	0.00000000000000	0.09866700000000	0.00000000000000	0.00000000000000	0.00000000000000	0.00000000000000	0.00000000000000	0.00000000000000	0.00000000000000	16.35614800000000	0.00000000000000	0.00000000000000	0.00000000000000	0.00000000000000	
1.27499600000000	21.11918500000000	721.06054900000004	34.06798700000000	0.27819300000000	0.00000000000000	0.09859600000000	0.00000000000000	0.00000000000000	0.00000000000000	0.00000000000000	0.00000000000000	0.00000000000000	0.00000000000000	16.44750400000000	0.00000000000000	0.00000000000000	0.00000000000000	0.00000000000000	
1.27666700000000	20.69829500000000	722.10680100000002	34.11292700000000	0.27762400000000	0.00000000000000	0.09852700000000	0.00000000000000	0.00000000000000	0.00000000000000	0.00000000000000	0.00000000000000	0.00000000000000	0.00000000000000	16.54129900000000	0.00000000000000	0.00000000000000	0.00000000000000	0.00000000000000	
1.27833300000000	20.27011500000000	723.16112799999996	34.16101300000000	0.27704400000000	0.00000000000000	0.09846000000000	0.00000000000000	0.00000000000000	0.00000000000000	0.00000000000000	0.00000000000000	0.00000000000000	0.00000000000000	16.63740600000000	0.00000000000000	0.00000000000000	0.00000000000000	0.00000000000000	
1.27999500000000	19.83466000000000	724.22317299999997	34.21217200000000	0.27645000000000	0.00000000000000	0.09839400000000	0.00000000000000	0.00000000000000	0.00000000000000	0.00000000000000	0.00000000000000	0.00000000000000	0.00000000000000	16.73570500000000	0.00000000000000	0.00000000000000	0.00000000000000	0.00000000000000	
1.28166100000000	19.39195500000000	725.29262800000004	34.26634200000000	0.27584200000000	0.00000000000000	0.09832900000000	0.00000000000000	0.00000000000000	0.00000000000000	0.00000000000000	0.00000000000000	0.00000000000000	0.00000000000000	16.83607800000000	0.00000000000000	0.00000000000000	0.00000000000000	0.00000000000000	
1.28332600000000	18.94204000000000	726.36922900000002	34.32347200000000	0.27521800000000	0.00000000000000	0.09826700000000	0.00000000000000	0.00000000000000	0.00000000000000	0.00000000000000	0.00000000000000	0.00000000000000	0.00000000000000	16.93841400000000	0.00000000000000	0.00000000000000	0.00000000000000	0.00000000000000	
1.28499400000000	18.48497000000000	727.45275400000003	34.38352100000000	0.27457700000000	0.00000000000000	0.09820600000000	0.00000000000000	0.00000000000000	0.00000000000000	0.00000000000000	0.00000000000000	0.00000000000000	0.00000000000000	17.04260500000000	0.00000000000000	0.00000000000000	0.00000000000000	0.00000000000000	
1.28666200000000	18.02081000000000	728.54301599999997	34.44645800000000	0.27391800000000	0.00000000000000	0.09814700000000	0.00000000000000	0.00000000000000	0.00000000000000	0.00000000000000	0.00000000000000	0.00000000000000	0.00000000000000	17.14854600000000	0.00000000000000	0.00000000000000	0.00000000000000	0.00000000000000	
1.28832900000000	17.54964100000000	729.63986199999999	34.51226000000000	0.27323900000000	0.00000000000000	0.09809000000000	0.00000000000000	0.00000000000000	0.00000000000000	0.00000000000000	0.00000000000000	0.00000000000000	0.00000000000000	17.25613800000000	0.00000000000000	0.00000000000000	0.00000000000000	0.00000000000000	
1.28999600000000	17.07155700000000	730.74316599999997	34.58091700000000	0.27254000000000	0.00000000000000	0.09803500000000	0.00000000000000	0.00000000000000	0.00000000000000	0.00000000000000	0.00000000000000	0.00000000000000	0.00000000000000	17.36528400000000	0.00000000000000	0.00000000000000	0.00000000000000	0.00000000000000	
1.29166200000000	16.58666600000000	731.85282800000004	34.65242700000000	0.27182000000000	0.00000000000000	0.09798200000000	0.00000000000000	0.00000000000000	0.00000000000000	0.00000000000000	0.00000000000000	0.00000000000000	0.00000000000000	17.47589100000000	0.00000000000000	0.00000000000000	0.00000000000000	0.00000000000000	
1.29332800000000	16.09509000000000	732.96876799999995	34.72679800000000	0.27107800000000	0.00000000000000	0.09793100000000	0.00000000000000	0.00000000000000	0.00000000000000	0.00000000000000	0.00000000000000	0.00000000000000	0.00000000000000	17.58786900000000	0.00000000000000	0.00000000000000	0.00000000000000	0.00000000000000	
1.29499400000000	15.59696400000000	734.09092199999998	34.80404400000000	0.27031400000000	0.00000000000000	0.09788200000000	0.00000000000000	0.00000000000000	0.00000000000000	0.00000000000000	0.00000000000000	0.00000000000000	0.00000000000000	17.70113200000000	0.00000000000000	0.00000000000000	0.00000000000000	0.00000000000000	
1.29666400000000	15.09243900000000	735.21923800000002	34.88419200000000	0.26952700000000	0.00000000000000	0.09783600000000	0.00000000000000	0.00000000000000	0.00000000000000	0.00000000000000	0.00000000000000	0.00000000000000	0.00000000000000	17.81559600000000	0.00000000000000	0.00000000000000	0.00000000000000	0.00000000000000	
1.29832900000000	14.58167700000000	736.35367299999996	34.96727300000000	0.26871700000000	0.00000000000000	0.09779100000000	0.00000000000000	0.00000000000000	0.00000000000000	0.00000000000000	0.00000000000000	0.00000000000000	0.00000000000000	17.93117900000000	0.00000000000000	0.00000000000000	0.00000000000000	0.00000000000000	
1.29999400000000	14.06485700000000	737.49418600000001	35.05332900000000	0.26788300000000	0.00000000000000	0.09774900000000	0.00000000000000	0.00000000000000	0.00000000000000	0.00000000000000	0.00000000000000	0.00000000000000	0.00000000000000	18.04780300000000	0.00000000000000	0.00000000000000	0.00000000000000	0.00000000000000	
1.30166800000000	13.54216800000000	738.64074000000005	35.14240800000000	0.26702500000000	0.00000000000000	0.09770900000000	0.00000000000000	0.00000000000000	0.00000000000000	0.00000000000000	0.00000000000000	0.00000000000000	0.00000000000000	18.16538900000000	0.00000000000000	0.00000000000000	0.00000000000000	0.00000000000000	
1.30333300000000	13.01381500000000	739.79329199999995	35.23456200000000	0.26614400000000	0.00000000000000	0.09767100000000	0.00000000000000	0.00000000000000	0.00000000000000	0.00000000000000	0.00000000000000	0.00000000000000	0.00000000000000	18.28386200000000	0.00000000000000	0.00000000000000	0.00000000000000	0.00000000000000	
1.30499400000000	12.48001300000000	740.95178999999996	35.32985400000000	0.26523900000000	0.00000000000000	0.09763600000000	0.00000000000000	0.00000000000000	0.00000000000000	0.00000000000000	0.00000000000000	0.00000000000000	0.00000000000000	18.40314900000000	0.00000000000000	0.00000000000000	0.00000000000000	0.00000000000000	
1.30666300000000	11.94099300000000	742.11617400000000	35.42834900000000	0.26431100000000	0.00000000000000	0.09760200000000	0.00000000000000	0.00000000000000	0.00000000000000	0.00000000000000	0.00000000000000	0.00000000000000	0.00000000000000	18.52317600000000	0.00000000000000	0.00000000000000	0.00000000000000	0.00000000000000	
